<svg width="216" height="53" viewBox="0 0 216 53" fill="none" xmlns="http://www.w3.org/2000/svg">
<path d="M17.9998 10C20.4998 10 22.5998 10.4 24.2998 11.2C25.9998 12 27.3998 13.2 28.2998 14.8C29.1998 16.4 29.6998 18.2 29.6998 20.4C29.6998 22.6 29.4998 23 29.0998 24.2C28.6998 25.5 28.0998 26.6 27.1998 27.7C26.2998 28.7 25.1998 29.5 23.7998 30.2C22.3998 30.8 20.6998 31.2 18.6998 31.2H13.9998V42.4C11.0998 42.4 8.7998 40.1 8.7998 37.2V10H17.8998H17.9998ZM18.6998 26.1C19.8998 26.1 20.7998 25.9 21.5998 25.5C22.3998 25.1 22.8998 24.6 23.3998 24.1C23.7998 23.5 24.0998 22.9 24.2998 22.3C24.4998 21.6 24.5998 21.1 24.5998 20.6C24.5998 20.1 24.5998 19.5 24.2998 18.9C24.0998 18.3 23.7998 17.7 23.3998 17.1C22.9998 16.5 22.3998 16.1 21.6998 15.7C20.8998 15.3 19.9998 15.1 18.7998 15.1H13.9998V26.2H18.6998V26.1Z" fill="#3D5241"/>
<path d="M45.1 10C46.9 10 48.5 10.2 50 10.7C51.5 11.2 52.7 11.8 53.8 12.7C54.8 13.6 55.7 14.6 56.2 15.9C56.8 17.2 57 18.7 57 20.3C57 21.9 56.8 22.8 56.4 24.1C56 25.4 55.4 26.5 54.5 27.6C53.6 28.6 52.5 29.5 51.1 30.1C49.7 30.7 47.9 31 45.9 31H41.2V42.2C38.3 42.2 36 39.9 36 37V10H45.1ZM45.7 26.1C46.8 26.1 47.8 25.9 48.5 25.6C49.3 25.2 49.9 24.8 50.3 24.2C50.7 23.6 51.1 23 51.3 22.4C51.5 21.8 51.6 21.2 51.6 20.6C51.6 20 51.6 19.5 51.3 18.8C51.1 18.2 50.8 17.6 50.4 17C50 16.4 49.4 15.9 48.6 15.6C47.9 15.2 46.9 15 45.8 15H41V26.1H45.6H45.7ZM51.3 29.2L59.6 42.3H53.6L45.2 29.3H51.4L51.3 29.2Z" fill="#3D5241"/>
<path d="M162.3 10C164.1 10 165.7 10.2 167.2 10.7C168.7 11.2 169.9 11.8 171 12.7C172 13.6 172.9 14.6 173.4 15.9C174 17.2 174.2 18.7 174.2 20.3C174.2 21.9 174 22.8 173.6 24.1C173.2 25.4 172.6 26.5 171.7 27.6C170.8 28.6 169.7 29.5 168.3 30.1C166.9 30.7 165.1 31 163.1 31H158.4V42.2C155.5 42.2 153.2 39.9 153.2 37V10H162.3ZM163 26.1C164.1 26.1 165.1 25.9 165.8 25.6C166.6 25.2 167.2 24.8 167.6 24.2C168 23.6 168.4 23 168.6 22.4C168.8 21.8 168.9 21.2 168.9 20.6C168.9 20 168.9 19.5 168.6 18.8C168.4 18.2 168.1 17.6 167.7 17C167.3 16.4 166.7 15.9 165.9 15.6C165.2 15.2 164.2 15 163.1 15H158.3V26.1H162.9H163ZM168.6 29.2L176.9 42.3H170.9L162.5 29.3H168.7L168.6 29.2Z" fill="#3D5241"/>
<path d="M189.1 31.3L177.5 10H183.8L192.9 27.4H191.3L200.3 10H206.6L194.7 31.3C194.5 31.6 194.5 31.9 194.5 32.2V37.1C194.5 39.9 192.2 42.2 189.4 42.2V32.3C189.4 31.9 189.4 31.5 189.1 31.2V31.3Z" fill="#3D5241"/>
<path d="M101.8 22L98.7001 14.2C97.1001 10.3 93.3001 7.69995 89.1001 7.69995L100.2 33.7999L101.8 29.5C102.7 27.1 102.7 24.4 101.8 22Z" fill="#3D5241"/>
<path d="M122 7.69995C117.8 7.69995 114.1 10.3 112.6 14.2L109.9 21.2L104.2 36.0999C103.3 38.4999 103.3 41.1999 104.3 43.5999L105.4 46.2L122 7.69995Z" fill="#3D5241"/>
<path d="M105.6 14.0999C108.141 14.0999 110.2 12.0404 110.2 9.4999C110.2 6.95939 108.141 4.8999 105.6 4.8999C103.059 4.8999 101 6.95939 101 9.4999C101 12.0404 103.059 14.0999 105.6 14.0999Z" fill="#FFAD4C"/>
<path d="M63.8999 10H85.2999C85.2999 12.7 83.0999 15 80.2999 15H68.9999V23.6H83.4999V28.6H68.9999V37.4H80.8999C83.5999 37.4 85.8999 39.6 85.8999 42.4H63.8999V10Z" fill="#3D5241"/>
<path d="M147.3 42.2001H125.3C125.3 39.5001 127.5 37.2001 130.3 37.2001H142.2V28.4H127.7V23.4H142.2V14.8H130.9C128.2 14.8 125.9 12.6 125.9 9.80005H147.3V42.1V42.2001Z" fill="#3D5241"/>
<path d="M184.4 47.6001H183.5V48.0001H184.4V47.6001Z" fill="#4F488A"/>
</svg>
